# xmcd CD database file
#
# Track frame offsets:
#	150
#	14595
#	29675
#	45176
#	56660
#	71495
#	82579
#	108887
#	125170
#	142898
#	156473
#	170774
#	181788
#	197462
#	209507
#	226425
#	243572
#	260519
#	273450
#	288418
#
# Disc length: 4114 seconds
#
# Revision: 5
# Processed by: cddbd v1.5.2PL0 Copyright (c) Steve Scherf et al.
# Submitted via: CDex 1.77
#
DISCID=21101014
DTITLE=Cuby and with Blizzards - 3 Originals [CD2]
DYEAR=1998
DGENRE=Blues
TTITLE0=Checkin' Up on My Baby
TTITLE1=Down the Road
TTITLE2=Window of My Eyes
TTITLE3=Trippin' Thru' a Midnight Blues
TTITLE4=Big Blue-Eyed Girl
TTITLE5=Going Home
TTITLE6=The Sky Is Crying
TTITLE7=Feelin' Down Low
TTITLE8=Feel So Bad
TTITLE9=Nuttin' but Trouble
TTITLE10=No Place Like Home
TTITLE11=Understanding
TTITLE12=Twenty-Four Hours
TTITLE13=The Hammond Sings the Blues
TTITLE14=The Big Boat
TTITLE15=Mr. Highway Man
TTITLE16=I'm in Your Corner
TTITLE17=Swinging Boogie
TTITLE18=Early Grave
TTITLE19=Little Red Rooster
EXTD=Tracks 1-9\nCuby and The Blizzards - Trippin' thru' a midnight blues\nTracks 10-20\nCuby and The Bl YEAR: 1998
EXTT0=
EXTT1=
EXTT2=
EXTT3=
EXTT4=
EXTT5=
EXTT6=
EXTT7=
EXTT8=
EXTT9=
EXTT10=
EXTT11=
EXTT12=
EXTT13=
EXTT14=
EXTT15=
EXTT16=
EXTT17=
EXTT18=
EXTT19=
PLAYORDER=
